<svg xmlns="http://www.w3.org/2000/svg" xmlns:xlink="http://www.w3.org/1999/xlink" xmlns:sketch="http://www.bohemiancoding.com/sketch/ns" viewBox="0 0 100 100" version="1.1" x="0px" y="0px"><title>15</title><desc>Created with Sketch.</desc><g stroke="none" stroke-width="1" fill="none" fill-rule="evenodd" sketch:type="MSPage"><path d="M95,50.0189848 L83.5976459,61.4212427 C82.4114669,62.6074117 80.4886723,62.6074117 79.301734,61.4212427 L79.301734,61.4212427 C78.115555,60.2350737 78.115555,58.311536 79.301734,57.125367 L83.3895709,53.0383239 L53.0372105,53.0383239 L53.0372105,83.3706841 L57.1068219,79.3018664 C58.2930009,78.1156975 60.2157955,78.1156975 61.4019744,79.3018664 L61.4019744,79.3018664 C62.5881534,80.4880354 62.5881534,82.4115731 61.4019744,83.5977421 L49.9996203,95 L38.5972662,83.5977421 C37.4110872,82.4115731 37.4110872,80.4880354 38.5980256,79.3018664 L38.5980256,79.3018664 C39.7842045,78.1156975 41.7069991,78.1164568 42.8931781,79.3018664 L46.9620301,83.3706841 L46.9620301,53.0383239 L16.6104291,53.0383239 L20.6975066,57.125367 C21.8836856,58.311536 21.8836856,60.2350737 20.6975066,61.4212427 L20.6975066,61.4212427 C19.5113277,62.6074117 17.5877737,62.6074117 16.4023541,61.4212427 L5,50.0189848 L16.4023541,38.6167269 C17.5877737,37.4297985 19.5113277,37.4297985 20.6975066,38.6159675 L20.6975066,38.6159675 C21.8836856,39.8021364 21.884445,41.7256742 20.6975066,42.9118431 L16.6468801,46.9631948 L46.9620301,46.9631948 L46.9620301,16.6293159 L42.8931781,20.698893 C41.7069991,21.8850619 39.7842045,21.8850619 38.5980256,20.698893 L38.5980256,20.698893 C37.4110872,19.512724 37.4110872,17.5891863 38.5972662,16.4030173 L49.9996203,5 L61.4019744,16.4030173 C62.5889128,17.5891863 62.5881534,19.512724 61.4019744,20.698893 L61.4019744,20.698893 C60.2157955,21.8850619 58.2930009,21.8850619 57.1068219,20.698893 L53.0372105,16.6293159 L53.0372105,46.9631948 L83.3523605,46.9631948 L79.301734,42.9118431 C78.115555,41.7256742 78.115555,39.8021364 79.301734,38.6159675 L79.301734,38.6159675 C80.4879129,37.4297985 82.4114669,37.4297985 83.5976459,38.6159675 L95,50.0189848 Z" fill="#000000" sketch:type="MSShapeGroup"></path></g></svg>