<svg xmlns="http://www.w3.org/2000/svg" xmlns:xlink="http://www.w3.org/1999/xlink" version="1.1" x="0px" y="0px" viewBox="0 0 620 560" style="enable-background:new 0 0 620 560;" xml:space="preserve"><g><path d="M574,117.7c-38.8-35.7-63.3-3.1-83.5,17.3c-3.5,3.6-1.4,9.6,3.6,10.1c18.1,1.8,51.5,10.7,57.4,51.1   c0.7,4.9,6.9,6.9,10.3,3.2C585.4,174.1,616.2,153.5,574,117.7z"></path><path d="M512.7,170.9l-194.1,187c-2.7,2.6-2.4,7.1,0.7,9.2l14.3,9.9c1.2,0.8,2.1,2.1,2.4,3.6l4.1,17.8c0.4,1.9-0.1,4-1.5,5.4   l-9.8,10.5c-0.7,0.7-1.5,1.3-2.5,1.6l-16.3,5.4c-2.1,0.7-4.5,0.2-6.1-1.4l-26-25.9c-1.5-1.5-2.1-3.6-1.6-5.6l2.7-11.9   c0.3-1.1,0.8-2.1,1.6-2.9L486.4,168c3.6-3.6,1.4-9.7-3.7-10.2c-2.8-0.3-5.8-0.4-8.8-0.5c-1.6,0-3.2,0.6-4.4,1.7L270.3,358.3   c-0.7,0.7-1.3,1.7-1.5,2.7l-18.9,69.5c-0.7,2.7-3.2,4.4-6,4.3c0,0,0,0-0.1,0c0,0,0,0,0,0C115,435.2,77.1,408,75,391.6   c-2-15.8,24.3-39,87.6-55.1c33.8-8.6,48.7-18.3,48-31.3c-1.4-30-111.4-50.2-158.6-57.5c-4.1-0.6-7.8,2.2-8.5,6.2   c-0.6,4.1,2.2,7.8,6.2,8.5c64.6,10,124.7,26.6,141.5,38.1c3.5,2.4,3.4,7.7-0.3,10c-4.7,2.9-13.9,7.1-32,11.7   c-65.3,16.7-102.2,43.4-98.6,71.4c4.5,35.2,71.5,56.1,179.5,56.1c1.4,0,2.8,0,4.2,0c0.3,0,0.5-0.1,0.8-0.2l0,0l1.1-0.3   c0.3-0.1,0.7-0.1,1-0.3l86.3-21c1.1-0.3,2-0.8,2.8-1.6l202.1-202.1c0.9-0.9,1.5-2.2,1.7-3.5c0.9-7.6,2.4-34.1-19.4-50.4   C518.1,168.7,514.8,168.9,512.7,170.9z"></path></g></svg>